<?xml version="1.0" encoding="UTF-8"?>
<svg version="1.1" xmlns="http://www.w3.org/2000/svg" width="597" height="561">
<path d="M0 0 C1.61124279 -0.00807831 1.61124279 -0.00807831 3.25503594 -0.01631981 C6.85471586 -0.03062837 10.45402956 -0.0234883 14.0537262 -0.01637268 C16.63435665 -0.0220747 19.21498458 -0.0290383 21.79560852 -0.03717041 C28.07772778 -0.05435709 34.359747 -0.05519873 40.64188366 -0.04995751 C45.74847986 -0.04591438 50.85504652 -0.04736105 55.96164131 -0.05270576 C56.68872732 -0.05345419 57.41581332 -0.05420261 58.16493224 -0.05497371 C59.64205392 -0.0565052 61.1191756 -0.05804355 62.59629727 -0.05958868 C76.4450511 -0.0733132 90.29374841 -0.06787634 104.14250094 -0.05640347 C116.80860533 -0.04647074 129.47456364 -0.05941247 142.1406455 -0.08333766 C155.15071723 -0.10772721 168.16072092 -0.11733691 181.17081505 -0.11068493 C188.47319764 -0.10719243 195.77546788 -0.10942678 203.07783318 -0.12693596 C209.94382147 -0.14319481 216.80952613 -0.13847854 223.67550659 -0.11963081 C226.19622303 -0.11593769 228.71696004 -0.11907431 231.23765755 -0.1295166 C234.67715422 -0.14267793 238.11571943 -0.13122078 241.55517578 -0.11352539 C243.05343097 -0.1279329 243.05343097 -0.1279329 244.58195394 -0.14263147 C250.67665599 -0.07806206 254.41974594 0.6874839 259.34107971 4.38768005 C261.62802779 7.44556922 261.58861416 10.2042861 261.58158875 13.95585632 C261.58571274 15.65534927 261.58571274 15.65534927 261.58992004 17.38917542 C261.58272949 18.62779327 261.57553894 19.86641113 261.56813049 21.14256287 C261.56842255 22.45012543 261.5687146 23.75768799 261.5690155 25.10487366 C261.56958929 28.68722219 261.55783078 32.26943678 261.54386759 35.85175419 C261.5313646 39.59669376 261.53019007 43.34163641 261.52781677 47.08659363 C261.52160073 54.17676668 261.50518825 61.26687806 261.48511779 68.35702395 C261.46276264 76.42950584 261.45176633 84.50199066 261.44172692 92.57449579 C261.42082212 109.17892665 261.38564374 125.78329548 261.34107971 142.38768005 C262.07768641 142.38399288 262.8142931 142.38030571 263.57322121 142.37650681 C281.50077564 142.28814949 299.42828659 142.2219674 317.35601234 142.18043137 C326.0257563 142.15981067 334.69535486 142.13169955 343.36500549 142.08592224 C350.92193905 142.04603932 358.47876731 142.02024365 366.0358032 142.01132607 C370.03683024 142.00611376 374.03755604 141.99387344 378.03848648 141.96475983 C381.80597821 141.93756753 385.57304521 141.92924263 389.34062576 141.93524933 C390.72170318 141.93415078 392.10279511 141.92621919 393.48378754 141.91085815 C405.20813377 141.78686587 405.20813377 141.78686587 409.08482361 144.1660614 C411.65858907 146.70031509 413.12802413 148.73532257 413.59523004 152.35874879 C413.59718097 153.05570065 413.59913189 153.7526525 413.60114193 154.47072411 C413.60820752 155.27965248 413.61527311 156.08858086 413.62255281 156.92202222 C413.62013773 157.8050872 413.61772264 158.68815217 413.61523438 159.59797668 C413.62047105 160.54046158 413.62570773 161.48294648 413.6311031 162.45399153 C413.64613456 165.61991862 413.64680894 168.78568454 413.6474762 171.9516449 C413.65509551 174.21833571 413.66352261 176.48502394 413.67269897 178.75170898 C413.69467212 184.91490653 413.70344657 191.07805446 413.70852542 197.24128675 C413.71216537 201.09006434 413.71840352 204.93882886 413.72552681 208.78760147 C413.74498394 219.44550417 413.76149633 230.1033923 413.76440334 240.76131248 C413.76459091 241.44318083 413.76477848 242.12504917 413.76497174 242.82758019 C413.76533798 244.20986311 413.76570168 245.59214602 413.76606285 246.97442894 C413.76624566 247.66058696 413.76642847 248.34674499 413.76661682 249.05369568 C413.76688764 250.08418989 413.76688764 250.08418989 413.76716394 251.13550217 C413.77070638 262.26987309 413.79773411 273.4040507 413.83511471 284.53835456 C413.87319292 295.97199734 413.89211964 307.40550254 413.89286286 318.83921778 C413.89365694 325.25801508 413.90245632 331.67656297 413.93086052 338.09530258 C413.95697416 344.13150202 413.95928355 350.16724406 413.94320488 356.20347404 C413.94138512 358.41984616 413.94812835 360.63624418 413.96402359 362.85256004 C413.98439173 365.87672406 413.97398619 368.89927373 413.95581055 371.92341614 C413.96901051 372.80201967 413.98221048 373.6806232 413.99581045 374.58585107 C413.93986368 378.65682985 413.67110476 381.54236586 411.17765903 384.85419655 C406.52784137 389.00716921 402.35850892 389.63904802 396.26664734 389.62818909 C395.07200363 389.63093842 393.87735992 389.63368774 392.64651489 389.63652039 C391.34963242 389.62932983 390.05274994 389.62213928 388.71656799 389.61473083 C387.32653817 389.61416622 385.93650775 389.61448426 384.54647827 389.61561584 C380.78450423 389.61618841 377.02265837 389.60444969 373.26071405 389.59046793 C369.32493398 389.57794456 365.3891508 389.5767888 361.45335388 389.57441711 C354.00554751 389.56820707 346.55780003 389.55180268 339.11001956 389.53171813 C330.62879252 389.50934434 322.14756263 389.49836198 313.66631341 389.48832726 C296.22453481 389.46743603 278.78281349 389.4322693 261.34107971 389.38768005 C261.34384509 390.08913241 261.34661047 390.79058477 261.34945965 391.51329327 C261.4157119 408.58096129 261.46535658 425.64859664 261.49651623 442.71636486 C261.51198531 450.97021286 261.53307558 459.22397503 261.56739807 467.47776794 C261.59729921 474.67175345 261.61665442 481.8656768 261.6233452 489.05972272 C261.62725626 492.86895621 261.63644853 496.67801185 261.65826988 500.48718834 C261.67864641 504.07323971 261.68491122 507.65904013 261.68040276 511.24514389 C261.68162038 513.18725536 261.69775646 515.12933957 261.71434021 517.07138062 C261.71021622 518.23099304 261.70609222 519.39060547 261.70184326 520.58535767 C261.70460864 521.59103381 261.70737402 522.59670996 261.7102232 523.63286114 C261.1381501 527.90208939 259.51931115 530.34528082 256.31978512 533.17595005 C251.80552513 535.01233987 247.51098889 534.8039173 242.68179321 534.77536011 C241.59552956 534.78074565 240.5092659 534.78613118 239.39008516 534.79167992 C235.74350844 534.80600839 232.09729221 534.79884352 228.45069885 534.79173279 C225.83903714 534.79743377 223.22737792 534.80439697 220.61572266 534.81253052 C214.25425914 534.82972844 207.89289435 534.8305565 201.53141362 534.82531761 C196.36090249 534.82127654 191.19042055 534.82271872 186.01991081 534.82806587 C184.91615636 534.82918851 184.91615636 534.82918851 183.79010383 534.83033382 C182.29526388 534.83186529 180.80042394 534.83340364 179.30558401 534.83494879 C165.28661434 534.8486774 151.26770048 534.84323359 137.24873208 534.83176357 C124.42345936 534.82183066 111.59833089 534.83477217 98.77308042 534.85869776 C85.60371361 534.8830802 72.43441401 534.89269876 59.26502508 534.88604504 C51.87155712 534.88255092 44.47820012 534.88479751 37.08474922 534.90229607 C30.13341775 534.91854415 23.18236655 534.91384972 16.23104286 534.89499092 C13.67765609 534.89129503 11.12424902 534.89444241 8.57088089 534.90487671 C5.08938282 534.91801919 1.60880775 534.90659772 -1.87265015 534.8888855 C-2.88675475 534.8984905 -3.90085935 534.90809551 -4.94569439 534.91799158 C-10.63003544 534.85835396 -14.3054459 534.43974467 -18.65892029 530.38768005 C-20.69998426 526.8011352 -20.90696509 523.70394 -20.89942932 519.62332153 C-20.90355331 517.89652412 -20.90355331 517.89652412 -20.90776062 516.13484192 C-20.89697479 514.25425583 -20.89697479 514.25425583 -20.88597107 512.3356781 C-20.8854066 510.99505624 -20.88572421 509.65443376 -20.88685608 508.31381226 C-20.8874292 504.68193836 -20.87568145 501.05019694 -20.86170816 497.4183538 C-20.84919409 493.62003488 -20.84802977 489.82171282 -20.84565735 486.02337646 C-20.83944457 478.83407237 -20.82303649 471.6448292 -20.80295837 464.45555192 C-20.78059308 456.26938506 -20.76960436 448.08321528 -20.7595675 439.89702547 C-20.73867008 423.06054135 -20.70349803 406.22411848 -20.65892029 389.38768005 C-21.32760667 389.39044543 -21.99629305 389.39321081 -22.68524265 389.39605999 C-38.96916559 389.46236415 -55.25304567 389.51198216 -71.53707218 389.54311657 C-79.4119661 389.55857381 -87.28676982 389.57964141 -95.16160583 389.61399841 C-102.02673242 389.64393585 -108.89179365 389.66326336 -115.7569837 389.66994554 C-119.3907861 389.67385047 -123.0244016 389.68300355 -126.658144 389.70487022 C-130.71846369 389.72910485 -134.77846011 389.72964726 -138.83885193 389.72825623 C-140.03863174 389.73904205 -141.23841156 389.74982788 -142.47454834 389.76094055 C-149.78370614 389.73383061 -155.26749906 389.58282719 -160.81189156 384.3593092 C-163.39289587 380.20680875 -163.212453 376.84911086 -163.16012573 372.05039978 C-163.16566013 371.10635489 -163.17119453 370.16231 -163.17689663 369.18965769 C-163.19051685 366.02427809 -163.17552613 362.85968507 -163.16062927 359.69432068 C-163.16441194 357.42585922 -163.16991154 355.15740007 -163.17700195 352.88894653 C-163.19098055 346.72578236 -163.1797697 340.5628966 -163.16329074 334.39974785 C-163.14945574 327.95452014 -163.15589855 321.50930885 -163.15942383 315.06407166 C-163.16212717 304.23975991 -163.14872713 293.41557606 -163.12547302 282.59129333 C-163.10155241 271.45550931 -163.09446883 260.31987188 -163.10496521 249.18406677 C-163.11759284 235.7631463 -163.11508277 222.34234072 -163.09930611 208.92141724 C-163.09354267 203.79551612 -163.09363182 198.66966406 -163.09837151 193.54376221 C-163.10313851 187.50925581 -163.09305085 181.47495271 -163.07141685 175.440485 C-163.06584508 173.22370909 -163.06538725 171.00691365 -163.07036972 168.79013634 C-163.07631086 165.76818424 -163.06383949 162.74685615 -163.04660034 159.72496033 C-163.05261039 158.84412608 -163.05862043 157.96329183 -163.0648126 157.05576563 C-163.01612377 152.37412763 -162.8182511 149.10466867 -159.65892029 145.38768005 C-156.06250904 142.62718313 -153.45800247 142.01429932 -148.9704895 142.0269165 C-147.26893456 142.02073051 -147.26893456 142.02073051 -145.53300476 142.01441956 C-144.29798218 142.02520538 -143.06295959 142.03599121 -141.79051208 142.04710388 C-140.4828035 142.0466658 -139.17509491 142.04622772 -137.82775879 142.04577637 C-134.24953232 142.04491674 -130.67160845 142.06253693 -127.09345222 142.08349824 C-123.35119654 142.10227062 -119.60893368 142.10401592 -115.86663818 142.10757446 C-108.78354444 142.11689329 -101.70058985 142.14150483 -94.61755735 142.17162293 C-86.55231825 142.20517202 -78.48707246 142.22165422 -70.42178094 142.23670924 C-53.83407931 142.26805458 -37.24651756 142.32081186 -20.65892029 142.38768005 C-20.66260746 141.70776442 -20.66629463 141.02784878 -20.67009354 140.32732964 C-20.75846495 123.77672618 -20.82463972 107.22619754 -20.86616898 90.67541313 C-20.88678649 82.67153826 -20.91489145 74.66782097 -20.9606781 66.66404724 C-21.00057087 59.68722843 -21.026359 52.71052375 -21.03527427 45.73359406 C-21.04048495 42.03995835 -21.05271457 38.34664912 -21.08184052 34.65311813 C-21.11410639 30.52787091 -21.11487814 26.4031898 -21.11302185 22.27781677 C-21.12740295 21.0557402 -21.14178406 19.83366364 -21.15660095 18.57455444 C-21.10453519 7.9000711 -21.10453519 7.9000711 -16.65892029 3.38768005 C-11.20772691 -0.18267909 -6.29172728 -0.03777324 0 0 Z " fill="#FBFCFD" transform="translate(173.65892028808594,14.612319946289063)"/>
<path d="M0 0 C3.15195459 3.15195459 4.74649299 6.23778235 6.625 10.1875 C9.82701631 16.7737489 13.26329747 23.17441099 16.94189453 29.5065918 C17.29751465 30.12445557 17.65313477 30.74231934 18.01953125 31.37890625 C18.48516479 32.17663452 18.48516479 32.17663452 18.96020508 32.99047852 C20.16509879 35.31907211 21.16241636 37.71898976 22.18254089 40.13282776 C23.51060841 43.16628934 25.026373 46.10296735 26.546875 49.04296875 C26.88116516 49.69268143 27.21545532 50.3423941 27.55987549 51.01179504 C28.26461518 52.37966426 28.97058604 53.74689982 29.67773438 55.11352539 C30.73721539 57.16277202 31.79072122 59.21501008 32.84375 61.26757812 C36.5358024 68.43454475 40.37574035 75.4623836 44.48583984 82.40161133 C46.45590729 85.78236396 48.22745103 89.23241373 49.9375 92.75 C50.62236906 94.13673197 51.3072656 95.52345037 51.9921875 96.91015625 C52.6615095 98.27341238 53.33078225 99.63669269 54 101 C63.41044891 120.05093101 73.22788932 138.90226271 83.15625 157.68774414 C86.9373099 164.85368671 90.65676186 172.0513349 94.375 179.25 C100.88371748 191.85062956 107.43083416 204.43077372 114 217 C120.95016128 230.30306131 127.87904559 243.61686631 134.78417969 256.94335938 C140.50110178 267.97358191 146.24768464 278.98820488 152 290 C158.94942374 303.30344839 165.87904405 316.61686334 172.78417969 329.94335938 C176.55435477 337.21753061 180.33393117 344.48669647 184.125 351.75 C184.85154785 353.14230835 184.85154785 353.14230835 185.59277344 354.56274414 C188.10250646 359.370551 190.61585886 364.17643803 193.1328125 368.98046875 C194.17214538 370.96600433 195.21121057 372.95168005 196.25 374.9375 C197.00494751 376.38056519 197.00494751 376.38056519 197.77514648 377.8527832 C200.970256 383.97766624 204.09089133 390.1334997 207.11621094 396.34399414 C208.77823468 399.71313869 210.54580443 402.9668996 212.48828125 406.18359375 C212.90634033 406.88492432 213.32439941 407.58625488 213.75512695 408.30883789 C214.55334277 409.63366637 215.36949254 410.94794871 216.20776367 412.24780273 C219.74820225 418.13862309 219 420.15014947 219 428 C146.07 428 73.14 428 -2 428 C-2 379.82 -2 331.64 -2 282 C-49.85 282 -97.7 282 -147 282 C-147 216.99 -147 151.98 -147 85 C-98.49 85 -49.98 85 0 85 C0 56.95 0 28.9 0 0 Z " fill="#FD0301" transform="translate(186,97)"/>
<path d="M0 0 C1.61124279 -0.00807831 1.61124279 -0.00807831 3.25503594 -0.01631981 C6.85471586 -0.03062837 10.45402956 -0.0234883 14.0537262 -0.01637268 C16.63435665 -0.0220747 19.21498458 -0.0290383 21.79560852 -0.03717041 C28.07772778 -0.05435709 34.359747 -0.05519873 40.64188366 -0.04995751 C45.74847986 -0.04591438 50.85504652 -0.04736105 55.96164131 -0.05270576 C56.68872732 -0.05345419 57.41581332 -0.05420261 58.16493224 -0.05497371 C59.64205392 -0.0565052 61.1191756 -0.05804355 62.59629727 -0.05958868 C76.4450511 -0.0733132 90.29374841 -0.06787634 104.14250094 -0.05640347 C116.80860533 -0.04647074 129.47456364 -0.05941247 142.1406455 -0.08333766 C155.15071723 -0.10772721 168.16072092 -0.11733691 181.17081505 -0.11068493 C188.47319764 -0.10719243 195.77546788 -0.10942678 203.07783318 -0.12693596 C209.94382147 -0.14319481 216.80952613 -0.13847854 223.67550659 -0.11963081 C226.19622303 -0.11593769 228.71696004 -0.11907431 231.23765755 -0.1295166 C234.67715422 -0.14267793 238.11571943 -0.13122078 241.55517578 -0.11352539 C243.05343097 -0.1279329 243.05343097 -0.1279329 244.58195394 -0.14263147 C250.67665599 -0.07806206 254.41974594 0.6874839 259.34107971 4.38768005 C261.62802779 7.44556922 261.58861416 10.2042861 261.58158875 13.95585632 C261.58571274 15.65534927 261.58571274 15.65534927 261.58992004 17.38917542 C261.58272949 18.62779327 261.57553894 19.86641113 261.56813049 21.14256287 C261.56842255 22.45012543 261.5687146 23.75768799 261.5690155 25.10487366 C261.56958929 28.68722219 261.55783078 32.26943678 261.54386759 35.85175419 C261.5313646 39.59669376 261.53019007 43.34163641 261.52781677 47.08659363 C261.52160073 54.17676668 261.50518825 61.26687806 261.48511779 68.35702395 C261.46276264 76.42950584 261.45176633 84.50199066 261.44172692 92.57449579 C261.42082212 109.17892665 261.38564374 125.78329548 261.34107971 142.38768005 C262.07768641 142.38399288 262.8142931 142.38030571 263.57322121 142.37650681 C281.50077564 142.28814949 299.42828659 142.2219674 317.35601234 142.18043137 C326.0257563 142.15981067 334.69535486 142.13169955 343.36500549 142.08592224 C350.92193905 142.04603932 358.47876731 142.02024365 366.0358032 142.01132607 C370.03683024 142.00611376 374.03755604 141.99387344 378.03848648 141.96475983 C381.80597821 141.93756753 385.57304521 141.92924263 389.34062576 141.93524933 C390.72170318 141.93415078 392.10279511 141.92621919 393.48378754 141.91085815 C405.20813377 141.78686587 405.20813377 141.78686587 409.08482361 144.1660614 C411.65858907 146.70031509 413.12802413 148.73532257 413.59523004 152.35874879 C413.59718097 153.05570065 413.59913189 153.7526525 413.60114193 154.47072411 C413.60820752 155.27965248 413.61527311 156.08858086 413.62255281 156.92202222 C413.62013773 157.8050872 413.61772264 158.68815217 413.61523438 159.59797668 C413.62047105 160.54046158 413.62570773 161.48294648 413.6311031 162.45399153 C413.64613456 165.61991862 413.64680894 168.78568454 413.6474762 171.9516449 C413.65509551 174.21833571 413.66352261 176.48502394 413.67269897 178.75170898 C413.69467212 184.91490653 413.70344657 191.07805446 413.70852542 197.24128675 C413.71216537 201.09006434 413.71840352 204.93882886 413.72552681 208.78760147 C413.74498394 219.44550417 413.76149633 230.1033923 413.76440334 240.76131248 C413.76459091 241.44318083 413.76477848 242.12504917 413.76497174 242.82758019 C413.76533798 244.20986311 413.76570168 245.59214602 413.76606285 246.97442894 C413.76624566 247.66058696 413.76642847 248.34674499 413.76661682 249.05369568 C413.76688764 250.08418989 413.76688764 250.08418989 413.76716394 251.13550217 C413.77070638 262.26987309 413.79773411 273.4040507 413.83511471 284.53835456 C413.87319292 295.97199734 413.89211964 307.40550254 413.89286286 318.83921778 C413.89365694 325.25801508 413.90245632 331.67656297 413.93086052 338.09530258 C413.95697416 344.13150202 413.95928355 350.16724406 413.94320488 356.20347404 C413.94138512 358.41984616 413.94812835 360.63624418 413.96402359 362.85256004 C413.98439173 365.87672406 413.97398619 368.89927373 413.95581055 371.92341614 C413.96901051 372.80201967 413.98221048 373.6806232 413.99581045 374.58585107 C413.93986368 378.65682985 413.67110476 381.54236586 411.17765903 384.85419655 C406.52784137 389.00716921 402.35850892 389.63904802 396.26664734 389.62818909 C395.07200363 389.63093842 393.87735992 389.63368774 392.64651489 389.63652039 C391.34963242 389.62932983 390.05274994 389.62213928 388.71656799 389.61473083 C387.32653817 389.61416622 385.93650775 389.61448426 384.54647827 389.61561584 C380.78450423 389.61618841 377.02265837 389.60444969 373.26071405 389.59046793 C369.32493398 389.57794456 365.3891508 389.5767888 361.45335388 389.57441711 C354.00554751 389.56820707 346.55780003 389.55180268 339.11001956 389.53171813 C330.62879252 389.50934434 322.14756263 389.49836198 313.66631341 389.48832726 C296.22453481 389.46743603 278.78281349 389.4322693 261.34107971 389.38768005 C261.34384509 390.08913241 261.34661047 390.79058477 261.34945965 391.51329327 C261.4157119 408.58096129 261.46535658 425.64859664 261.49651623 442.71636486 C261.51198531 450.97021286 261.53307558 459.22397503 261.56739807 467.47776794 C261.59729921 474.67175345 261.61665442 481.8656768 261.6233452 489.05972272 C261.62725626 492.86895621 261.63644853 496.67801185 261.65826988 500.48718834 C261.67864641 504.07323971 261.68491122 507.65904013 261.68040276 511.24514389 C261.68162038 513.18725536 261.69775646 515.12933957 261.71434021 517.07138062 C261.71021622 518.23099304 261.70609222 519.39060547 261.70184326 520.58535767 C261.70460864 521.59103381 261.70737402 522.59670996 261.7102232 523.63286114 C261.1381501 527.90208939 259.51931115 530.34528082 256.31978512 533.17595005 C251.80552513 535.01233987 247.51098889 534.8039173 242.68179321 534.77536011 C241.59552956 534.78074565 240.5092659 534.78613118 239.39008516 534.79167992 C235.74350844 534.80600839 232.09729221 534.79884352 228.45069885 534.79173279 C225.83903714 534.79743377 223.22737792 534.80439697 220.61572266 534.81253052 C214.25425914 534.82972844 207.89289435 534.8305565 201.53141362 534.82531761 C196.36090249 534.82127654 191.19042055 534.82271872 186.01991081 534.82806587 C184.91615636 534.82918851 184.91615636 534.82918851 183.79010383 534.83033382 C182.29526388 534.83186529 180.80042394 534.83340364 179.30558401 534.83494879 C165.28661434 534.8486774 151.26770048 534.84323359 137.24873208 534.83176357 C124.42345936 534.82183066 111.59833089 534.83477217 98.77308042 534.85869776 C85.60371361 534.8830802 72.43441401 534.89269876 59.26502508 534.88604504 C51.87155712 534.88255092 44.47820012 534.88479751 37.08474922 534.90229607 C30.13341775 534.91854415 23.18236655 534.91384972 16.23104286 534.89499092 C13.67765609 534.89129503 11.12424902 534.89444241 8.57088089 534.90487671 C5.08938282 534.91801919 1.60880775 534.90659772 -1.87265015 534.8888855 C-2.88675475 534.8984905 -3.90085935 534.90809551 -4.94569439 534.91799158 C-10.63003544 534.85835396 -14.3054459 534.43974467 -18.65892029 530.38768005 C-20.69998426 526.8011352 -20.90696509 523.70394 -20.89942932 519.62332153 C-20.90355331 517.89652412 -20.90355331 517.89652412 -20.90776062 516.13484192 C-20.89697479 514.25425583 -20.89697479 514.25425583 -20.88597107 512.3356781 C-20.8854066 510.99505624 -20.88572421 509.65443376 -20.88685608 508.31381226 C-20.8874292 504.68193836 -20.87568145 501.05019694 -20.86170816 497.4183538 C-20.84919409 493.62003488 -20.84802977 489.82171282 -20.84565735 486.02337646 C-20.83944457 478.83407237 -20.82303649 471.6448292 -20.80295837 464.45555192 C-20.78059308 456.26938506 -20.76960436 448.08321528 -20.7595675 439.89702547 C-20.73867008 423.06054135 -20.70349803 406.22411848 -20.65892029 389.38768005 C-21.32760667 389.39044543 -21.99629305 389.39321081 -22.68524265 389.39605999 C-38.96916559 389.46236415 -55.25304567 389.51198216 -71.53707218 389.54311657 C-79.4119661 389.55857381 -87.28676982 389.57964141 -95.16160583 389.61399841 C-102.02673242 389.64393585 -108.89179365 389.66326336 -115.7569837 389.66994554 C-119.3907861 389.67385047 -123.0244016 389.68300355 -126.658144 389.70487022 C-130.71846369 389.72910485 -134.77846011 389.72964726 -138.83885193 389.72825623 C-140.03863174 389.73904205 -141.23841156 389.74982788 -142.47454834 389.76094055 C-149.78370614 389.73383061 -155.26749906 389.58282719 -160.81189156 384.3593092 C-163.39289587 380.20680875 -163.212453 376.84911086 -163.16012573 372.05039978 C-163.16566013 371.10635489 -163.17119453 370.16231 -163.17689663 369.18965769 C-163.19051685 366.02427809 -163.17552613 362.85968507 -163.16062927 359.69432068 C-163.16441194 357.42585922 -163.16991154 355.15740007 -163.17700195 352.88894653 C-163.19098055 346.72578236 -163.1797697 340.5628966 -163.16329074 334.39974785 C-163.14945574 327.95452014 -163.15589855 321.50930885 -163.15942383 315.06407166 C-163.16212717 304.23975991 -163.14872713 293.41557606 -163.12547302 282.59129333 C-163.10155241 271.45550931 -163.09446883 260.31987188 -163.10496521 249.18406677 C-163.11759284 235.7631463 -163.11508277 222.34234072 -163.09930611 208.92141724 C-163.09354267 203.79551612 -163.09363182 198.66966406 -163.09837151 193.54376221 C-163.10313851 187.50925581 -163.09305085 181.47495271 -163.07141685 175.440485 C-163.06584508 173.22370909 -163.06538725 171.00691365 -163.07036972 168.79013634 C-163.07631086 165.76818424 -163.06383949 162.74685615 -163.04660034 159.72496033 C-163.05261039 158.84412608 -163.05862043 157.96329183 -163.0648126 157.05576563 C-163.01612377 152.37412763 -162.8182511 149.10466867 -159.65892029 145.38768005 C-156.06250904 142.62718313 -153.45800247 142.01429932 -148.9704895 142.0269165 C-147.26893456 142.02073051 -147.26893456 142.02073051 -145.53300476 142.01441956 C-144.29798218 142.02520538 -143.06295959 142.03599121 -141.79051208 142.04710388 C-140.4828035 142.0466658 -139.17509491 142.04622772 -137.82775879 142.04577637 C-134.24953232 142.04491674 -130.67160845 142.06253693 -127.09345222 142.08349824 C-123.35119654 142.10227062 -119.60893368 142.10401592 -115.86663818 142.10757446 C-108.78354444 142.11689329 -101.70058985 142.14150483 -94.61755735 142.17162293 C-86.55231825 142.20517202 -78.48707246 142.22165422 -70.42178094 142.23670924 C-53.83407931 142.26805458 -37.24651756 142.32081186 -20.65892029 142.38768005 C-20.66260746 141.70776442 -20.66629463 141.02784878 -20.67009354 140.32732964 C-20.75846495 123.77672618 -20.82463972 107.22619754 -20.86616898 90.67541313 C-20.88678649 82.67153826 -20.91489145 74.66782097 -20.9606781 66.66404724 C-21.00057087 59.68722843 -21.026359 52.71052375 -21.03527427 45.73359406 C-21.04048495 42.03995835 -21.05271457 38.34664912 -21.08184052 34.65311813 C-21.11410639 30.52787091 -21.11487814 26.4031898 -21.11302185 22.27781677 C-21.12740295 21.0557402 -21.14178406 19.83366364 -21.15660095 18.57455444 C-21.10453519 7.9000711 -21.10453519 7.9000711 -16.65892029 3.38768005 C-11.20772691 -0.18267909 -6.29172728 -0.03777324 0 0 Z M-8.65892029 12.38768005 C-8.65892029 59.24768005 -8.65892029 106.10768005 -8.65892029 154.38768005 C-55.51892029 154.38768005 -102.37892029 154.38768005 -150.65892029 154.38768005 C-150.65892029 227.64768005 -150.65892029 300.90768005 -150.65892029 376.38768005 C-103.46892029 376.38768005 -56.27892029 376.38768005 -7.65892029 376.38768005 C-7.65892029 424.56768005 -7.65892029 472.74768005 -7.65892029 522.38768005 C77.15107971 522.38768005 161.96107971 522.38768005 249.34107971 522.38768005 C249.34107971 474.20768005 249.34107971 426.02768005 249.34107971 376.38768005 C299.50107971 376.38768005 349.66107971 376.38768005 401.34107971 376.38768005 C401.34107971 303.12768005 401.34107971 229.86768005 401.34107971 154.38768005 C351.18107971 154.38768005 301.02107971 154.38768005 249.34107971 154.38768005 C249.34107971 107.52768005 249.34107971 60.66768005 249.34107971 12.38768005 C164.20107971 12.38768005 79.06107971 12.38768005 -8.65892029 12.38768005 Z " fill="#73CCFA" transform="translate(173.65892028808594,14.612319946289063)"/>
<path d="M0 0 C59.73 0 119.46 0 181 0 C181 42.9 181 85.8 181 130 C176.72841553 128.29136621 174.34114079 126.93199839 170.8125 124.1875 C169.75119789 123.37343592 168.68861499 122.56103985 167.625 121.75 C167.0475 121.30914062 166.47 120.86828125 165.875 120.4140625 C162.39168457 117.78706212 158.85135505 115.23891745 155.3125 112.6875 C154.54744141 112.13553955 153.78238281 111.5835791 152.99414062 111.01489258 C147.08624243 106.76226703 141.14030367 102.56522346 135.18481445 98.37963867 C129.95830229 94.6980818 124.79744269 90.93458495 119.65454102 87.13745117 C115.06355431 83.75681002 110.41823084 80.46042937 105.75 77.1875 C99.60281737 72.87546529 93.53280424 68.47055842 87.5 64 C80.84065725 59.06635427 74.1252984 54.22742258 67.34155273 49.46655273 C58.40351028 43.18944628 49.57302153 36.76367367 40.72949219 30.35449219 C31.8043687 23.88829209 22.86165425 17.4520727 13.83178711 11.13256836 C10.36228755 8.69783939 6.91893118 6.23086212 3.5078125 3.71484375 C2.83637207 3.21976318 2.16493164 2.72468262 1.47314453 2.21459961 C0.98700684 1.81378174 0.50086914 1.41296387 0 1 C0 0.67 0 0.34 0 0 Z " fill="#6DCAFA" transform="translate(219,42)"/>
<path d="M0 0 C3.39611664 1.97227775 6.5470909 4.08408126 9.66015625 6.4765625 C10.53051514 7.14300781 11.40087402 7.80945313 12.29760742 8.49609375 C13.21002197 9.19863281 14.12243652 9.90117187 15.0625 10.625 C16.95544312 12.0758941 18.84867045 13.52641749 20.7421875 14.9765625 C21.6506543 15.67297852 22.55912109 16.36939453 23.49511719 17.08691406 C26.54256204 19.4143778 29.61119559 21.71084398 32.6875 24 C36.0360335 26.49967557 39.32192875 29.04969712 42.5625 31.6875 C47.28834129 35.50452566 52.16367009 39.09775606 57.0625 42.6875 C69.23329453 51.60860146 81.2033733 60.77187892 93.04858398 70.12011719 C98.07852526 74.08156669 103.18785957 77.93079431 108.32519531 81.75195312 C111.63981837 84.22197543 114.94384684 86.70615958 118.25 89.1875 C119.54683639 90.16020772 120.84371047 91.13286521 122.140625 92.10546875 C122.77444092 92.58121338 123.40825684 93.05695801 124.0612793 93.54711914 C125.37637266 94.53265252 126.69299437 95.51614914 128.01098633 96.49780273 C133.07673895 100.27680165 138.04238134 104.16796778 142.97460938 108.11914062 C143.84375977 108.8084668 143.84375977 108.8084668 144.73046875 109.51171875 C145.23989014 109.91865967 145.74931152 110.32560059 146.27416992 110.74487305 C148.05626702 112.1303298 148.05626702 112.1303298 150.5723877 113.1612854 C153 115 153 115 153.60127258 117.98027039 C153.584618 119.80894402 153.584618 119.80894402 153.56762695 121.67456055 C153.56872215 122.68471222 153.56872215 122.68471222 153.56983948 123.715271 C153.56635752 125.93990816 153.5274743 128.1624478 153.48828125 130.38671875 C153.47895512 131.92941646 153.47183806 133.47212899 153.46684265 135.0148468 C153.44775659 139.07423834 153.39864337 143.13273456 153.34332275 147.19177246 C153.29216408 151.3341053 153.26933593 155.4765829 153.24414062 159.61914062 C153.19052492 167.74650451 153.10519419 175.87314087 153 184 C149.88532084 182.50894899 147.66973373 180.95090041 145.171875 178.55078125 C144.45386719 177.86693359 143.73585938 177.18308594 142.99609375 176.47851562 C141.88427734 175.40633789 141.88427734 175.40633789 140.75 174.3125 C135.91600021 169.68027462 131.04849837 165.13211227 125.98730469 160.7487793 C122.49106137 157.67217108 119.12745706 154.45573518 115.75 151.25 C109.88445742 145.7052989 103.9819657 140.20994682 98.01953125 134.76953125 C94.50971443 131.55971881 91.0364843 128.31099242 87.5625 125.0625 C80.73505187 118.67911354 73.87481982 112.33229396 67 106 C60.14686396 99.68767864 53.30740954 93.36165002 46.5 87 C38.24648494 79.28749118 29.96740475 71.60206255 21.61878967 63.99243164 C20.16778593 62.65923757 18.73532954 61.30593496 17.30444336 59.95117188 C15.09842247 57.91201273 12.83634464 56.13671295 10.3762207 54.41503906 C5.63467408 50.90780367 0.99382195 47.35871539 -0.73641968 41.51119995 C-1.73166458 34.74339629 -1.28117537 27.98792678 -0.875 21.1875 C-0.80464162 19.12716657 -0.74078662 17.06660029 -0.68359375 15.00585938 C-0.53060609 9.99807191 -0.28992309 5.00165128 0 0 Z " fill="#025CC9" transform="translate(402,189)"/>
<path d="M0 0 C43.56 0 87.12 0 132 0 C132 35.64 132 71.28 132 108 C128.05571 106.027855 125.09726231 103.67509335 121.8125 100.8125 C118.07968964 97.60410397 114.34726782 94.43069221 110.4375 91.4375 C105.86590077 87.9356717 101.46073326 84.24387507 97.046875 80.546875 C90.75823011 75.29021286 84.40609987 70.11275479 78 65 C71.07031421 59.46936749 64.21007914 53.85656383 57.41333008 48.16333008 C52.75786043 44.26443889 48.05698909 40.45464668 43.24609375 36.75 C37.38652327 32.18463031 31.69381094 27.40565298 25.9765625 22.6640625 C24.52628429 21.46324858 23.07575879 20.26273327 21.625 19.0625 C20.90320557 18.4646167 20.18141113 17.8667334 19.43774414 17.25073242 C13.82873685 12.62721884 8.09065449 8.21145081 2.24609375 3.890625 C1.50488281 3.26671875 0.76367188 2.6428125 0 2 C0 1.34 0 0.68 0 0 Z " fill="#6FCAFA" transform="translate(423,184)"/>
<path d="M0 0 C5.3789643 4.48430477 10.35541994 9.23667913 15.27734375 14.21484375 C16.43261314 15.37579308 16.43261314 15.37579308 17.61122131 16.56019592 C20.87802854 19.84321733 24.13883041 23.13217945 27.40014648 26.4206543 C29.79461138 28.83331531 32.19215797 31.24288427 34.58984375 33.65234375 C35.31405014 34.38484848 36.03825653 35.11735321 36.78440857 35.87205505 C40.82738776 39.93417966 44.9653317 43.80699969 49.32594299 47.52723694 C52.10055991 49.96822508 54.38660033 52.76611111 56.75 55.59375 C58.55396215 57.5229873 60.30767006 59.13765923 62.31689453 60.83056641 C67.9215425 65.70813344 73.10831001 70.99676525 78.34087753 76.26571274 C80.21312168 78.15085196 82.08858744 80.03273382 83.96487427 81.91384888 C87.93775413 85.89807758 91.90665094 89.88625922 95.875 93.875 C100.49664258 98.52025428 105.11990899 103.16386853 109.7473793 107.80331802 C111.59632325 109.65875004 113.44223616 111.51716211 115.28805542 113.3757019 C116.41438343 114.50566006 117.54085074 115.63547939 118.66748047 116.76513672 C119.43733025 117.54273598 119.43733025 117.54273598 120.22273254 118.33604431 C122.85741748 121.00387331 122.85741748 121.00387331 126 123 C126 123.66 126 124.32 126 125 C113.78705082 125.32508191 101.57513804 125.57347805 89.35873604 125.72537041 C83.68518901 125.7982936 78.01461123 125.89709729 72.34277344 126.05615234 C66.86357614 126.20883485 61.38722408 126.292087 55.90606308 126.3282814 C53.82055736 126.35405409 51.73519927 126.40439158 49.65091324 126.48022079 C33.75249958 127.03536034 33.75249958 127.03536034 29.16558838 123.64352798 C25.57282973 119.89419025 23.34094843 115.59528198 21 111 C19.75943499 109.22724142 18.49060449 107.47322121 17.171875 105.7578125 C16.59953125 104.98179687 16.0271875 104.20578125 15.4375 103.40625 C14.880625 102.6534375 14.32375 101.900625 13.75 101.125 C13.17765625 100.34898437 12.6053125 99.57296875 12.015625 98.7734375 C9.00422598 94.47137353 9.00422598 94.47137353 5.48690796 90.61529541 C-1.25892596 83.65102114 0.14648009 73.87620654 0.1953125 64.84375 C0.18405323 62.9718658 0.1701686 61.09999572 0.15377808 59.22814941 C0.11782681 54.32241684 0.11735555 49.41730859 0.12445068 44.51147461 C0.12536534 39.49712035 0.09248019 34.48299788 0.0625 29.46875 C0.0087193 19.6457679 -0.00755389 9.82311312 0 0 Z " fill="#015CC9" transform="translate(403,253)"/>
<path d="M0 0 C5.63188306 -1.14086377 11.02122548 -1.61930683 16.171875 1.18066406 C20.97211566 4.48082952 25.35648278 8.29499141 29.75830078 12.1015625 C33.15773285 14.98045422 36.72485538 17.61237097 40.3125 20.25 C41.63894199 21.23834827 42.9644835 22.22790635 44.2890625 23.21875 C44.91844727 23.68925781 45.54783203 24.15976563 46.19628906 24.64453125 C49.93607136 27.45493614 53.63250227 30.32170151 57.3359375 33.1796875 C68.22570579 41.57401257 79.16796009 49.90179548 90.1875 58.125 C96.61761017 62.92495288 102.95354635 67.83877589 109.27661133 72.77856445 C117.76563505 79.39884873 126.39275872 85.83069817 135.03125 92.25390625 C140.93575764 96.65795522 146.76151199 101.14835269 152.5625 105.6875 C159.68798084 111.25936141 166.9186024 116.66885703 174.21801758 122.01025391 C179.98469926 126.23439769 185.6662894 130.55294731 191.30859375 134.94140625 C193.60446211 136.69746231 195.92967378 138.36565597 198.3125 140 C199.199375 140.66 200.08625 141.32 201 142 C201 142.66 201 143.32 201 144 C194.68821835 144.30724324 188.37839462 144.51558691 182.06079102 144.65917969 C179.91780587 144.7190963 177.77530227 144.80066885 175.6340332 144.90527344 C155.92441825 145.84316974 155.92441825 145.84316974 149.01774597 139.92218018 C146.98488849 137.89645446 145.11980389 135.78952681 143.31869507 133.55627441 C141.10651545 130.94554308 138.55849786 128.76866202 136 126.5 C132.8233948 123.59374417 129.65329529 120.68152508 126.5 117.75 C125.91605469 117.20794922 125.33210938 116.66589844 124.73046875 116.10742188 C123.60658269 115.06345097 122.48410332 114.01796289 121.36328125 112.97070312 C119.18564836 110.94939904 117.03399357 109.02460061 114.625 107.28125 C114.08875 106.8584375 113.5525 106.435625 113 106 C113 105.34 113 104.68 113 104 C112.42765625 103.75636719 111.8553125 103.51273437 111.265625 103.26171875 C108.59566462 101.77482702 106.86170993 100.01916092 104.75 97.8125 C101.35104956 94.27089289 97.78458093 91.03438468 94.07910156 87.82299805 C90.81305453 84.95926235 87.65821676 81.98155577 84.5 79 C83.10156373 77.68489453 81.70312619 76.3697904 80.3046875 75.0546875 C78.86973497 73.70318519 77.4348393 72.35162252 76 71 C64.41149074 60.08407127 64.41149074 60.08407127 52.62890625 49.37890625 C48.50435905 45.6465894 44.45931977 41.82959781 40.40185547 38.0246582 C36.5869271 34.45552453 32.71582395 30.97602145 28.75390625 27.5703125 C26.04951055 25.14900499 23.53683747 22.54413429 20.98828125 19.9609375 C18.49634231 17.50326884 15.88020375 15.22230144 13.23046875 12.9375 C10.45937747 10.53038744 7.72475254 8.08423243 5 5.625 C4.05125 4.77164063 3.1025 3.91828125 2.125 3.0390625 C1.42375 2.36617187 0.7225 1.69328125 0 1 C0 0.67 0 0.34 0 0 Z " fill="#055ECA" transform="translate(196,42)"/>
<path d="M0 0 C3.28708396 3.18635835 5.77682161 6.50123354 8.1875 10.375 C8.98301952 11.63154422 9.77859398 12.88805367 10.57421875 14.14453125 C10.97688965 14.78471191 11.37956055 15.42489258 11.79443359 16.08447266 C16.43740171 23.4616958 21.121777 30.79806942 26.125 37.9375 C31.00732031 44.92441562 35.63744147 52.06868004 40.27978516 59.21655273 C44.14868091 65.17036949 48.04758981 71.10132212 52 77 C57.25391421 84.84470209 62.41287176 92.74940979 67.56103516 100.66381836 C71.13372965 106.1519381 74.73012609 111.62207516 78.375 117.0625 C79.91858848 119.37372296 81.45981972 121.68650475 83 124 C83.42603516 124.63856934 83.85207031 125.27713867 84.29101562 125.93505859 C85.57651293 127.86854176 86.85198247 129.80828362 88.125 131.75 C88.51606934 132.33531494 88.90713867 132.92062988 89.31005859 133.52368164 C91.09215647 136.2617205 92 137.66096229 92 141 C78.8 141 65.6 141 52 141 C50.288125 137.865 48.57625 134.73 46.8125 131.5 C46.2340332 130.44087402 45.65556641 129.38174805 45.05957031 128.29052734 C42.18733536 123.02657999 39.32650124 117.75683383 36.484375 112.4765625 C35.91227295 111.41501953 35.3401709 110.35347656 34.75073242 109.25976562 C33.64972651 107.21538155 32.55082903 105.16986015 31.4543457 103.12304688 C29.19876002 98.93782101 26.92485352 94.80597875 24.3671875 90.796875 C21.96868829 87.03540692 19.99502234 83.14139273 18.0625 79.125 C15.32810201 73.52378924 12.42264762 68.15839965 9.03125 62.91796875 C8 61 8 61 8 58 C7.34 58 6.68 58 6 58 C-1.98106355 47.0046678 -0.69045418 35.21734912 -0.375 22.25 C-0.34485421 20.08857893 -0.31748658 17.92711724 -0.29296875 15.765625 C-0.22736134 10.50951935 -0.12738287 5.25495258 0 0 Z " fill="#035DC9" transform="translate(186,43)"/>
<path d="M0 0 C20.79 0 41.58 0 63 0 C63 38.28 63 76.56 63 116 C60.12323711 113.12323711 58.72275063 110.91214845 56.84765625 107.35546875 C56.24228027 106.2149707 55.6369043 105.07447266 55.01318359 103.89941406 C54.69532898 103.29456177 54.37747437 102.68970947 54.04998779 102.06652832 C52.71034352 99.51740362 51.3588989 96.97460171 50.00811768 94.43136597 C49.32159209 93.13849848 48.63568139 91.8453043 47.95037842 90.55178833 C44.96907195 84.92709263 41.93344625 79.33312414 38.875 73.75 C34.73186798 66.17639083 30.60800718 58.59272212 26.5 51 C22.23470985 43.12199061 17.96883655 35.24430344 13.6875 27.375 C13.19475586 26.46838623 12.70201172 25.56177246 12.19433594 24.62768555 C9.99697886 20.59932105 7.77954255 16.58791331 5.47265625 12.62109375 C5.09343018 11.96898926 4.7142041 11.31688477 4.32348633 10.64501953 C3.33233758 8.95305626 2.33069787 7.26725028 1.328125 5.58203125 C0 3 0 3 0 0 Z " fill="#035DC9" transform="translate(342,378)"/>
<path d="M0 0 C4.4580154 3.63919624 8.30240715 7.31183752 11.93359375 11.77734375 C13.64838801 13.62180109 15.32890361 15.14785511 17.24804688 16.76171875 C23.14932728 21.89968861 28.60209448 27.49136266 34.11403084 33.03886604 C36.13466667 35.07240297 38.15853012 37.1026791 40.18321228 39.13218689 C44.47914012 43.43947433 48.77111205 47.75069003 53.0625 52.0625 C58.04317601 57.06685704 63.02550371 62.06954648 68.01208305 67.06802177 C69.99654749 69.05892227 71.97795295 71.05283221 73.95924377 73.04689026 C75.18630258 74.27758453 76.41350366 75.50813697 77.64086914 76.73852539 C78.18287964 77.28570221 78.72489014 77.83287903 79.2833252 78.39663696 C82.51161467 81.62536432 85.86430835 84.62562024 89.35188484 87.57116985 C91.68988785 89.5980969 93.84197355 91.78405406 96 94 C96.78279831 94.78501892 97.56559662 95.57003784 98.37211609 96.37884521 C99.18993057 97.1996759 100.00774506 98.02050659 100.8503418 98.86621094 C105.46181017 103.49392584 110.07574589 108.11917202 114.69114971 112.74296188 C117.47649035 115.53354699 120.26087613 118.32507197 123.04321289 121.11865234 C125.74409063 123.83036932 128.44738122 126.53965891 131.1523838 129.24726105 C132.18152732 130.2782535 133.20978967 131.3101263 134.23715782 132.34288788 C135.66840124 133.78135763 137.10303926 135.21644745 138.5378418 136.65136719 C139.3532695 137.4690155 140.1686972 138.28666382 141.00883484 139.12908936 C142.86430107 141.05154615 142.86430107 141.05154615 145 142 C145 142.66 145 143.32 145 144 C139.30784332 144.27322046 133.61954402 144.47207961 127.92236328 144.60424805 C125.98776754 144.65936059 124.05362583 144.73428109 122.12060547 144.82983398 C106.07721416 145.60266092 106.07721416 145.60266092 101.0847168 141.75073242 C99.03157474 138.92575791 97.50043492 136.14769237 96 133 C95.12380241 131.73490759 94.21753003 130.48956458 93.26953125 129.27734375 C92.86621582 128.72908936 92.46290039 128.18083496 92.04736328 127.6159668 C91.6398584 127.06207275 91.23235352 126.50817871 90.8125 125.9375 C83.40188749 115.84698191 76.09167697 105.68384076 68.77734375 95.5234375 C61.95782515 86.05712108 55.06996578 76.64400791 48.140625 67.2578125 C43.36571529 60.78885276 38.64292593 54.28306884 33.9453125 47.7578125 C27.71368804 39.10566227 21.43187139 30.50475812 15 22 C12.69282353 18.92633251 10.38800259 15.85093504 8.0859375 12.7734375 C6.76791081 11.02100501 5.44091033 9.27525413 4.1015625 7.5390625 C3.55242187 6.82492188 3.00328125 6.11078125 2.4375 5.375 C1.96183594 4.76398437 1.48617187 4.15296875 0.99609375 3.5234375 C0 2 0 2 0 0 Z " fill="#065FCA" transform="translate(190,42)"/>
<path d="M0 0 C1.12894876 0.93274109 2.25300876 1.87140122 3.375 2.8125 C4.00148437 3.33457031 4.62796875 3.85664062 5.2734375 4.39453125 C7 6 7 6 9 9 C8.01 9.33 7.02 9.66 6 10 C4.99421411 8.71283353 3.99553202 7.42011342 3 6.125 C2.443125 5.40570313 1.88625 4.68640625 1.3125 3.9453125 C0 2 0 2 0 0 Z " fill="#649BDE" transform="translate(190,42)"/>
</svg>
